<svg xmlns="http://www.w3.org/2000/svg" viewBox="0 0 512 512" role="img" aria-label="Logo Alarcon Pasteleria">
  <rect width="512" height="512" fill="#fffaf2"/>
  <circle cx="256" cy="256" r="235" fill="#ffffff" stroke="#111111" stroke-width="18"/>
  <path d="M156 279h200l-28 96H184z" fill="#111111"/>
  <path d="M176 226h160c22 0 40 18 40 40v15H136v-15c0-22 18-40 40-40Z" fill="#111111"/>
  <path d="M186 188c15-54 125-54 140 0 19 7 31 20 31 38H155c0-18 12-31 31-38Z" fill="#111111"/>
  <path d="M206 296h46v79h-46z" fill="#fffaf2"/>
  <path d="M272 296h46v79h-46z" fill="#fffaf2"/>
  <circle cx="184" cy="320" r="13" fill="#fffaf2"/>
  <circle cx="328" cy="320" r="13" fill="#fffaf2"/>
  <path d="M256 96v60" stroke="#111111" stroke-width="20" stroke-linecap="round"/>
  <circle cx="256" cy="164" r="24" fill="#d61f2c"/>
  <text x="256" y="435" text-anchor="middle" font-family="Georgia, 'Times New Roman', serif" font-size="64" font-style="italic" font-weight="700" fill="#111111">Alarcon</text>
  <text x="256" y="470" text-anchor="middle" font-family="Arial, Helvetica, sans-serif" font-size="23" font-weight="900" letter-spacing="3" fill="#111111">PASTELERIA</text>
</svg>
